<svg width="554" height="106" viewBox="0 0 554 106" fill="none" xmlns="http://www.w3.org/2000/svg">
<path d="M6.06837 1.85977C6.88369 1.37799 8.29196 0.785027 9.21846 0.525603C10.4785 0.192057 16.4452 0.0808667 54.9875 0.192048L57.0258 1.19269C58.1376 1.7486 59.62 2.74923 60.3242 3.41632C61.0283 4.08341 61.9548 5.23229 62.3995 5.93644C62.8813 6.64059 63.4001 7.90065 63.6225 8.71598C63.8819 9.67956 64.0672 19.2782 64.1043 36.1408C64.1784 50.4091 64.1043 62.3056 63.956 62.565C63.7707 62.8985 62.1772 63.0097 58.0635 63.0097C53.9869 63.0097 52.2451 62.8985 51.9116 62.565C51.541 62.1944 51.4668 56.8947 51.4668 13.3486L50.5403 12.9779C49.9844 12.7556 42.943 12.6073 32.1956 12.6073C21.4482 12.6073 14.4069 12.7556 12.9245 13.3486V37.7344C12.9245 56.3759 12.8133 62.1944 12.4797 62.565C12.1462 62.8985 10.4044 63.0097 6.36484 63.0097C1.06527 63.0097 0.657611 62.9727 0.324071 62.2685C0.101711 61.7867 -0.0094757 52.3733 0.0646442 35.6961L0.0646667 35.6868C0.13876 9.86485 0.138875 9.82755 0.954097 7.78947C1.43588 6.67765 2.43649 5.08405 3.17769 4.23166C3.95595 3.41633 5.25305 2.34156 6.06837 1.85977Z" fill="white"/>
<path d="M76.6676 1.7486C77.3718 1.30387 78.7059 0.747966 79.6324 0.525603C80.8554 0.192057 88.3415 0.043797 107.687 0.043797C133.74 0.00673646 134.111 0.00674553 134.481 0.747957C134.666 1.15562 134.852 3.78692 134.852 6.60352C134.852 9.38307 134.703 11.9032 134.555 12.1626C134.37 12.4962 128.959 12.6073 109.651 12.6073C88.2674 12.6073 84.8949 12.6815 84.1537 13.1632C83.4125 13.6821 83.3384 14.0156 83.3384 16.9805C83.3384 19.6488 83.4866 20.4642 84.1908 21.6872C84.6355 22.5025 85.6732 23.5032 87.9709 24.8373H108.799C126.847 24.8373 129.737 24.9115 130.219 25.3932C130.664 25.838 130.775 27.0239 130.775 31.1376C130.775 33.9913 130.59 36.6597 130.405 37.0673C130.034 37.8085 129.663 37.8085 87.6003 37.8085L86.3403 38.6239C85.6361 39.1057 84.7096 39.958 84.302 40.514C83.6349 41.4034 83.4867 42.2187 83.4125 45.5171C83.3014 49.0379 83.3755 49.5567 83.9684 49.9644C84.4873 50.335 90.0463 50.4462 109.54 50.4091C131.368 50.4091 134.518 50.4833 134.666 50.965C134.778 51.2615 134.852 53.8928 134.852 56.8206C134.889 60.6749 134.741 62.2314 134.407 62.565C134.036 62.8985 127.922 62.9727 79.8177 62.8244L77.9647 61.972C76.927 61.5273 75.3705 60.4155 74.5181 59.5631C73.6287 58.7107 72.4428 57.1912 71.9239 56.1535C70.9974 54.4117 70.9233 53.9669 70.8121 48.0002C70.701 43.9606 70.8121 40.9957 71.1086 39.6616C71.368 38.5497 72.0722 36.6226 72.7022 35.3996C73.4805 33.8431 73.814 32.6201 73.814 31.3229C73.851 29.9888 73.5175 28.8769 72.7022 27.2463C72.0722 26.0233 71.368 24.0961 71.1086 22.9843C70.8121 21.6872 70.701 18.7594 70.8121 14.831C70.9233 9.38307 71.0345 8.56773 71.7757 7.15943C72.2204 6.26998 73.221 4.89875 73.9622 4.04636C74.7405 3.23102 75.9635 2.19332 76.6676 1.7486Z" fill="white"/>
<path d="M147.082 1.89683C148.008 1.37798 149.49 0.747966 150.417 0.525603C151.64 0.192057 158.681 0.0438061 176.174 0.0067455C195.445 0.0067455 200.337 0.0808712 200.707 0.451477C201.041 0.822083 201.152 2.52686 201.004 12.422L177.99 12.6073C158.237 12.7556 154.901 12.8668 154.345 13.3486C153.826 13.8303 153.715 14.6457 153.752 18.7223C153.752 21.3907 153.938 23.7996 154.123 24.0961C154.419 24.5779 157.31 24.6891 195.815 25.0226L198.224 26.2086C199.558 26.8386 201.189 27.9875 201.893 28.8028C202.597 29.5811 203.598 31.1376 204.117 32.2495C205.043 34.2507 205.08 34.5101 205.192 43.5529C205.303 52.0769 205.266 53.0034 204.562 54.8564C204.154 55.9682 203.079 57.7471 202.19 58.7478C201.226 59.8596 199.67 61.0826 196.186 62.8244L169.503 62.9356C154.827 63.0097 142.449 62.9356 141.967 62.8615C141.152 62.6391 141.152 62.6021 141.337 50.5944L166.353 50.4833C189.441 50.4091 191.405 50.335 192.035 49.7421C192.591 49.1861 192.702 48.4449 192.665 43.9235C192.665 40.2545 192.554 38.6239 192.221 38.2903C191.85 37.9197 187.588 37.8085 172.838 37.8085C160.534 37.8085 153.159 37.6603 151.714 37.4009C150.491 37.1785 148.749 36.6226 147.823 36.1408C146.896 35.659 145.451 34.5472 144.598 33.6948C143.746 32.8054 142.671 31.2488 142.19 30.2111C141.374 28.4693 141.337 27.8392 141.226 19.4635C141.115 11.162 141.152 10.4208 141.893 8.34538C142.301 7.12238 143.301 5.38052 144.043 4.49107C144.784 3.60161 146.155 2.45273 147.082 1.89683Z" fill="white"/>
<path d="M207.415 6.30704C207.341 1.97096 207.452 0.822083 207.86 0.451477C208.305 0.0808712 210.973 0.00674098 219.719 0.117923C229.318 0.229104 231.282 0.340286 232.69 0.859134C233.617 1.22974 235.099 1.85978 236.025 2.30451C236.952 2.71217 238.36 3.15689 239.176 3.26807C240.324 3.41631 241.325 3.15689 243.623 2.15625C245.253 1.41504 247.588 0.636766 248.811 0.414403C250.071 0.192039 255.26 0.0067455 260.856 0.0067455C268.416 -0.0303151 270.788 0.0808712 271.121 0.451477C271.455 0.785022 271.603 2.56393 271.603 6.49235C271.603 9.56837 271.492 12.1626 271.307 12.3109C271.158 12.4591 266.452 12.6073 260.856 12.6815C251.628 12.7926 250.516 12.8668 249.034 13.5339C247.773 14.0898 247.218 14.6457 246.699 15.7575C246.106 17.1287 246.032 18.9447 246.032 39.6616C246.032 56.7836 245.921 62.1944 245.587 62.565C245.253 62.8985 243.512 63.0097 239.472 63.0097C234.172 63.0097 233.765 62.9727 233.431 62.2685C233.209 61.8238 233.061 53.3369 233.061 39.1057C233.061 19.9083 232.987 16.5358 232.505 15.5722C232.171 14.868 231.282 14.1639 230.17 13.645C228.502 12.8297 227.909 12.7926 218.237 12.6815C210.714 12.6073 207.971 12.4591 207.786 12.1256C207.637 11.9032 207.452 9.27189 207.415 6.30704Z" fill="white"/>
<path d="M283.833 2.00803C284.537 1.52624 285.945 0.89619 286.983 0.599706C288.502 0.192039 293.802 0.0808576 315.223 0.043797C341.276 0.00673646 341.646 0.00674553 342.017 0.747957C342.202 1.15562 342.388 3.78692 342.388 6.60352C342.388 9.38307 342.239 11.9032 342.091 12.1626C341.906 12.4962 336.199 12.6444 316.705 12.7185C294.84 12.7926 291.541 12.8668 291.245 13.3486C291.06 13.645 290.874 15.2386 290.874 16.8693C290.874 18.7223 291.06 20.353 291.43 21.2425C291.727 21.9837 292.616 23.0955 294.691 24.652L316.149 24.8373C334.679 25.0226 337.644 25.0968 337.94 25.5785C338.126 25.875 338.311 28.4322 338.311 31.2488C338.311 34.0284 338.126 36.6597 337.94 37.0673C337.57 37.8085 337.199 37.8085 295.136 37.8085L293.876 38.6239C293.172 39.1057 292.245 39.958 291.838 40.514C291.171 41.4034 291.022 42.2187 290.948 45.5171C290.837 49.0379 290.911 49.5567 291.504 49.9644C292.023 50.335 297.582 50.4462 317.076 50.4091C338.904 50.4091 342.054 50.4833 342.202 50.965C342.313 51.2615 342.388 53.8928 342.388 56.8206C342.425 60.6749 342.276 62.2314 341.943 62.565C341.572 62.8985 335.457 62.9727 287.354 62.8244L285.315 61.8979C284.203 61.3791 282.573 60.1931 281.683 59.3037C280.794 58.3772 279.719 56.8947 279.274 55.9682C278.533 54.4858 278.459 53.6334 278.348 47.259C278.274 41.4775 278.348 39.8839 278.867 38.3644C279.2 37.3638 279.905 35.6961 280.423 34.6584C280.979 33.5095 281.313 32.2124 281.313 31.1376C281.313 30.0629 280.905 28.7287 280.201 27.2463C279.571 26.0233 278.867 24.2814 278.644 23.3549C278.385 22.3172 278.274 19.2412 278.348 15.2016C278.459 9.42013 278.533 8.53068 279.274 7.04826C279.719 6.12174 280.646 4.82461 281.313 4.12046C281.98 3.45337 283.129 2.48981 283.833 2.00803Z" fill="white"/>
<path d="M489.59 25.4674C489.701 3.97223 489.775 0.673836 490.257 0.377351C490.553 0.192048 493.259 0.0067455 496.261 0.0067455C501.375 0.0067455 501.783 0.0808667 502.116 0.747957C502.338 1.22974 502.487 10.2725 502.487 25.5785C502.487 49.2973 502.487 49.6679 503.228 50.0385C503.635 50.2609 506.23 50.4091 508.972 50.4091C511.715 50.4091 514.309 50.2609 514.716 50.0385C515.458 49.6679 515.458 49.2973 515.458 33.1018C515.458 22.9472 515.643 15.8687 515.865 14.831C516.088 13.9045 516.755 12.0885 517.385 10.7543C518.163 9.12365 519.386 7.49299 521.165 5.71408C522.758 4.12048 524.611 2.71216 525.834 2.15625C526.946 1.60035 528.947 0.933251 530.282 0.599706C532.135 0.154979 534.988 0.0067455 542.882 0.0067455C550.628 0.0067455 553.185 0.117923 553.555 0.488528C553.889 0.822074 554 2.45274 554 6.30704C554 9.27189 553.852 11.9032 553.703 12.1626C553.518 12.4962 550.998 12.6444 543.253 12.7185C533.543 12.7926 532.987 12.8297 531.282 13.645C530.17 14.1639 529.318 14.9051 528.873 15.6834C528.317 16.7581 528.243 18.6853 528.058 35.3996C527.873 53.0775 527.836 54.004 527.094 55.5976C526.687 56.5241 525.612 58.0807 524.686 59.0442C523.796 60.0449 522.128 61.3049 518.978 62.8244H508.972C499.003 62.8244 498.966 62.8244 496.928 61.8979C495.816 61.3791 494.185 60.1931 493.296 59.3037C492.443 58.3772 491.406 56.9689 491.035 56.1535C490.665 55.3382 490.146 53.6705 489.923 52.4475C489.59 50.8539 489.516 43.1082 489.59 25.4674Z" fill="white"/>
<path d="M1.95472 74.9803C2.84416 74.0538 4.03007 73.2384 4.77127 73.0531C5.4754 72.8678 11.8497 72.7196 18.9282 72.6825C26.859 72.6825 32.1215 72.7937 32.5662 73.0161C33.1963 73.3496 33.3074 73.7573 33.3074 75.9068C33.3074 77.3522 33.1221 78.5752 32.8627 78.8717C32.5292 79.2052 29.4532 79.3164 19.9659 79.3164C10.4785 79.3164 7.40253 79.4276 7.06899 79.7982C6.80957 80.0576 6.62427 80.8729 6.62427 81.6512C6.62427 82.3924 6.80957 83.4301 6.99487 83.949C7.18017 84.4678 7.73607 85.0978 8.18079 85.3573C8.77375 85.6908 12.2203 85.8761 30.8985 86.1726L31.0838 88.5815C31.195 89.8786 31.0838 91.2869 30.8985 91.7317C30.5311 92.4666 30.1636 92.4728 8.95432 92.8341L8.40314 92.8435L7.51371 93.8812C6.88369 94.6224 6.62427 95.3265 6.62427 96.4754C6.62427 97.3278 6.80957 98.2914 6.99487 98.5879C7.29135 99.0697 9.32964 99.1808 33.1221 99.5144V105.444L19.4099 105.555C11.3309 105.629 5.17893 105.518 4.40067 105.296C3.69653 105.111 2.54768 104.369 1.8806 103.628C1.25058 102.887 0.509381 101.59 0.287021 100.737C0.0646616 99.8479 -0.0465357 97.9578 0.0646442 96.3642C0.175824 94.8448 0.620559 92.5841 1.84354 89.1374L1.06527 87.0991C0.657609 85.9873 0.175824 84.1343 0.0646442 83.0224C-0.0465357 81.9106 -0.00947367 79.9835 0.138766 78.7605C0.398186 76.8704 0.657622 76.3145 1.95472 74.9803Z" fill="white"/>
<path d="M59.9906 74.1279C60.5095 73.7944 61.436 73.3126 62.0289 73.0902C62.7701 72.8308 67.1061 72.7196 86.192 72.8308L87.7486 73.9426C88.6009 74.5726 89.6386 75.7215 90.0462 76.5368C90.7133 77.9451 90.7504 78.8717 90.5651 105.444L87.6003 105.555C85.5249 105.629 84.5614 105.518 84.3761 105.185C84.2278 104.925 84.0796 99.2179 84.0796 92.4729C84.0796 85.6537 83.9314 80.0576 83.746 79.7982C83.4866 79.4276 81.1519 79.3164 74.1846 79.3164C67.2914 79.3164 64.8455 79.4276 64.5119 79.7982C64.1784 80.1317 64.0672 83.356 64.0672 92.4729C64.1043 102.035 63.9931 104.814 63.6225 105.185C63.2889 105.481 62.1772 105.592 57.5817 105.444L57.5076 91.7317C57.3964 78.1675 57.3964 78.0193 58.2488 76.3886C58.6935 75.4991 59.4718 74.4614 59.9906 74.1279Z" fill="white"/>
<path d="M117.322 74.202C117.915 73.7944 118.879 73.3126 119.472 73.0902C120.176 72.8679 125.105 72.6825 132.517 72.6825C139.818 72.6825 144.784 72.7937 145.229 73.0161C145.859 73.3496 145.97 73.7573 145.97 75.7956C145.97 77.1298 145.896 78.464 145.784 78.7605C145.636 79.2423 143.969 79.3164 133.999 79.3164C125.216 79.3164 122.288 79.4276 121.955 79.7982C121.621 80.1317 121.51 82.726 121.51 89.4339C121.51 98.2173 121.547 98.6249 122.251 98.9585C122.696 99.1809 126.513 99.292 131.887 99.255C139.336 99.1808 140.855 99.0697 141.152 98.5879C141.337 98.2914 141.523 97.0313 141.523 95.8083C141.523 94.5112 141.337 93.3994 141.078 93.14C140.744 92.7694 139.002 92.6582 134.852 92.6582C130.701 92.6582 128.959 92.547 128.626 92.2135C128.366 91.917 128.181 90.7681 128.181 89.3227C128.181 87.9515 128.366 86.7285 128.626 86.4691C128.959 86.1355 130.923 85.9873 135.852 85.9873C141.152 85.9873 142.931 86.1355 144.006 86.5803C144.784 86.8767 145.747 87.4326 146.118 87.7662C146.489 88.1368 147.119 89.0633 147.489 89.8786C148.045 91.0646 148.193 92.2876 148.193 95.8083C148.193 99.292 148.045 100.589 147.526 101.738C147.156 102.553 146.192 103.739 144.006 105.444L131.924 105.555C120.51 105.629 119.768 105.592 118.36 104.888C117.545 104.481 116.47 103.554 115.025 101.442L114.913 89.6192C114.839 78.464 114.876 77.7598 115.581 76.3515C115.988 75.5362 116.767 74.5726 117.322 74.202Z" fill="white"/>
<path d="M204.747 74.4244C205.154 74.0908 206.118 73.572 206.933 73.2384C208.119 72.8308 210.676 72.6825 219.163 72.6825C226.353 72.6455 230.355 72.7937 231.208 73.0531C231.912 73.3126 233.098 74.0538 233.802 74.7209C234.506 75.388 235.321 76.5739 235.581 77.3522C235.951 78.4269 236.025 81.9477 235.84 105.444L233.246 105.666C231.838 105.815 230.355 105.778 229.985 105.592C229.392 105.296 229.355 104.295 229.355 92.6582C229.355 80.4282 229.318 80.0576 228.613 79.687C228.169 79.4646 224.203 79.3164 219.052 79.3164C214.16 79.3164 210.009 79.5017 209.713 79.687C209.231 79.9835 209.157 81.7253 209.268 92.3617C209.379 102.368 209.305 104.814 208.898 105.185C208.601 105.481 207.452 105.592 202.857 105.444L202.746 91.6576C202.671 78.7234 202.709 77.7598 203.376 76.4627C203.746 75.6844 204.376 74.795 204.747 74.4244Z" fill="white"/>
<path d="M262.042 74.6097C262.523 74.165 263.561 73.5349 264.376 73.2384C265.562 72.7937 268.416 72.6825 279.015 72.6455C289.355 72.6455 292.283 72.7196 292.616 73.0902C292.95 73.4238 293.061 74.5356 292.913 79.1311L280.016 79.3164C269.12 79.4646 267.082 79.6129 266.748 80.0576C266.563 80.3541 266.489 81.3547 266.637 82.2812C266.748 83.2077 266.971 84.1713 267.119 84.4678C267.23 84.7643 267.786 85.209 268.342 85.5055C269.157 85.8761 271.751 85.9873 279.83 85.9873C287.798 85.9873 290.43 86.0985 290.8 86.4691C291.06 86.7285 291.245 87.8033 291.245 89.0633C291.245 90.2122 291.06 91.5093 290.874 91.917C290.504 92.6582 290.133 92.6582 279.645 92.6582C270.602 92.6582 268.675 92.7694 267.971 93.2141C267.526 93.5106 266.971 94.4 266.748 95.1783C266.526 95.9195 266.452 97.1054 266.563 97.7725C266.674 98.4396 266.822 98.9956 266.859 99.0326C266.934 99.1067 272.789 99.2179 292.913 99.5144V105.444L278.904 105.555C265.562 105.629 264.858 105.592 263.45 104.888C262.523 104.443 261.634 103.554 261.041 102.59C260.263 101.219 260.114 100.552 260.114 97.4761C260.114 94.7336 260.3 93.4365 261.782 89.2857L260.93 86.9879C260.337 85.2831 260.114 83.8378 260.077 81.3547C260.04 79.0199 260.189 77.6487 260.596 76.7221C260.93 76.018 261.597 75.0544 262.042 74.6097Z" fill="white"/>
<path d="M319.485 74.6097C319.929 74.165 321.004 73.5349 321.819 73.2384C323.005 72.7937 325.859 72.6825 336.532 72.6825C347.872 72.6455 349.874 72.7196 350.355 73.2014C350.726 73.572 350.911 74.5356 350.911 76.0921C350.911 77.3892 350.726 78.6122 350.467 78.8717C350.133 79.2052 347.057 79.3164 337.681 79.3164C330.899 79.3164 325.081 79.3905 324.784 79.5017C324.376 79.6499 324.228 80.2429 324.228 81.7253C324.228 82.8371 324.339 84.0601 324.488 84.3937C324.673 84.7272 325.229 85.209 325.785 85.5055C326.6 85.8761 329.194 85.9873 337.273 85.9873C345.241 85.9873 347.872 86.0985 348.243 86.4691C348.503 86.7285 348.688 87.8774 348.688 89.3227C348.688 90.731 348.503 91.917 348.243 92.2135C347.91 92.547 345.167 92.6582 326.267 92.6582L325.229 93.5847C324.339 94.4 324.228 94.8077 324.228 96.7348C324.228 98.8844 324.265 98.9585 325.229 99.1808C325.822 99.292 331.677 99.3662 338.311 99.3291C347.91 99.292 350.393 99.4032 350.615 99.7738C350.763 100.033 350.911 101.256 350.911 102.479C350.911 103.739 350.726 104.925 350.467 105.185C350.133 105.518 346.798 105.629 336.273 105.629C322.783 105.629 322.523 105.629 320.893 104.814C319.67 104.184 319.003 103.517 318.373 102.294C317.706 100.96 317.557 100.033 317.557 97.4761C317.557 95.7342 317.78 93.6588 318.002 92.8435C318.224 92.0282 318.558 91.2128 318.743 90.9905C318.929 90.8052 319.04 90.1381 319.04 89.508C319.04 88.9151 318.706 87.5438 318.299 86.4691C317.78 85.0608 317.557 83.6154 317.557 81.2806C317.557 79.2793 317.743 77.5375 318.076 76.7221C318.373 76.018 319.003 75.0544 319.485 74.6097Z" fill="white"/>
<path d="M465.315 74.3132C465.871 73.9055 466.835 73.3867 467.465 73.1273C468.206 72.8678 472.06 72.6825 479.324 72.6825C486.625 72.6455 490.479 72.7937 491.369 73.0902C492.073 73.3126 493.11 73.8314 493.666 74.202C494.259 74.5726 495.038 75.5362 495.445 76.3515C496.149 77.7598 496.186 78.464 496.001 105.444L493.222 105.555C491.406 105.592 490.294 105.481 489.96 105.185C489.59 104.814 489.479 102.035 489.516 92.4729C489.516 85.6167 489.367 80.0576 489.182 79.7982C488.923 79.4276 486.588 79.3164 479.621 79.3164C472.727 79.3164 470.281 79.4276 469.948 79.7982C469.614 80.1317 469.503 83.356 469.503 92.3988C469.503 99.0697 469.429 104.777 469.318 105.073C469.17 105.518 468.466 105.629 466.168 105.629C463.87 105.629 463.166 105.518 463.018 105.073C462.907 104.777 462.832 98.5508 462.832 91.2869C462.832 79.0199 462.907 77.9081 463.537 76.5368C463.944 75.7215 464.723 74.7209 465.315 74.3132Z" fill="white"/>
<path d="M523.092 74.2762C523.685 73.8314 524.76 73.3126 525.464 73.0902C526.205 72.8679 531.801 72.7196 538.509 72.6825C545.699 72.6825 550.59 72.7937 551.035 73.0161C551.665 73.3496 551.776 73.7573 551.776 75.7956C551.776 77.1298 551.702 78.464 551.591 78.7605C551.443 79.2423 549.775 79.3164 539.806 79.3164C531.023 79.3164 528.095 79.4276 527.762 79.7982C527.428 80.1317 527.317 82.726 527.317 89.4339C527.317 98.2173 527.354 98.6249 528.058 98.9585C528.503 99.1809 532.32 99.3291 537.138 99.3291C541.844 99.3291 545.884 99.1809 546.403 98.9585C547.255 98.6249 547.329 98.4026 547.329 96.1048C547.329 94.5483 547.144 93.3994 546.885 93.14C546.551 92.7694 544.809 92.6582 540.658 92.6582C536.508 92.6582 534.766 92.547 534.432 92.2135C534.173 91.917 533.988 90.7681 533.988 89.3227C533.988 87.9515 534.173 86.7285 534.432 86.4691C534.766 86.1355 536.767 85.9873 541.844 85.9873C547.959 85.9873 548.997 86.0985 550.183 86.6915C550.961 87.0991 551.888 87.6921 552.221 88.0997C552.555 88.4704 553.111 89.3969 553.407 90.1751C553.815 91.1387 554 92.8064 554 95.7342C554 98.032 553.815 100.478 553.592 101.182C553.333 101.886 552.74 102.961 552.184 103.554C551.665 104.147 550.665 104.851 549.997 105.111C549.071 105.518 546.217 105.629 537.027 105.629C525.538 105.629 525.242 105.592 523.833 104.814C522.907 104.258 522.054 103.369 521.498 102.294C520.646 100.663 520.646 100.478 520.646 89.3227C520.646 79.2793 520.72 77.871 521.313 76.5368C521.684 75.7215 522.462 74.7209 523.092 74.2762Z" fill="white"/>
<path d="M172.208 89.5451C172.134 75.7586 172.208 73.4238 172.653 73.2755C172.949 73.1643 174.284 73.0531 175.618 73.0531C177.1 73.0161 178.212 73.2014 178.508 73.4979C178.842 73.8314 178.953 77.4634 178.953 89.508C178.953 101.256 178.842 105.185 178.508 105.555C178.249 105.815 177.1 106 175.729 106C174.432 106 173.135 105.926 172.838 105.815C172.356 105.666 172.282 103.48 172.208 89.5451Z" fill="white"/>
<path d="M432.48 89.7304C432.332 76.0921 432.406 73.572 432.851 73.3496C433.147 73.1643 434.445 73.0161 435.779 73.0161C437.261 73.0161 438.373 73.2014 438.669 73.4979C439.003 73.8314 439.114 77.4634 439.151 89.508C439.151 101.775 439.04 105.185 438.669 105.555C438.336 105.852 437.224 105.963 432.629 105.815L432.48 89.7304Z" fill="white"/>
<path fill-rule="evenodd" clip-rule="evenodd" d="M357.953 0.525603C357.026 0.747966 355.544 1.37798 354.654 1.89683C353.765 2.37861 352.394 3.5275 351.615 4.45401C350.837 5.38053 349.837 7.08531 349.429 8.27125C348.725 10.3096 348.688 11.2361 348.688 36.5114C348.688 59.4149 348.762 62.6762 349.244 62.8244C349.54 62.9356 352.097 63.0097 354.877 63.0097C358.435 63.0097 360.176 62.8985 360.621 62.565C361.214 62.1203 361.288 61.0085 361.362 50.0385L361.473 37.9938C387.304 37.8456 395.198 37.8827 395.643 37.9938C396.125 38.105 397.014 38.6609 397.681 39.2168C398.311 39.7727 399.163 40.8846 399.497 41.6999C400.09 42.997 400.201 44.2941 400.164 52.6328C400.164 59.8966 400.275 62.1944 400.646 62.565C400.979 62.8615 402.721 62.9727 406.872 62.9356L412.616 62.8244C412.802 43.8123 412.69 41.2922 412.246 39.5874C411.949 38.4015 411.208 36.4002 410.578 35.1402C409.911 33.7319 409.466 32.2124 409.466 31.3229C409.466 30.4335 409.985 28.7658 410.763 27.061C411.467 25.5415 412.209 23.2808 412.468 22.0578C412.69 20.7607 412.802 17.5735 412.727 14.4604C412.579 9.49425 412.505 8.93834 411.579 7.15943C411.023 6.08468 409.874 4.49107 408.984 3.63868C408.132 2.78628 406.501 1.67446 405.389 1.15561L403.351 0.192048C365.068 0.0808667 359.213 0.154997 357.953 0.525603ZM361.214 18.8335C361.177 13.8674 361.214 13.7562 362.066 13.1632C362.845 12.6815 365.217 12.6073 380.745 12.6073C395.976 12.6073 398.645 12.6815 399.386 13.1632C400.09 13.645 400.201 14.0156 400.201 16.4987C400.201 18.1664 399.979 19.8342 399.608 20.6495C399.312 21.4278 398.756 22.3543 398.422 22.7619C398.089 23.1326 397.162 23.7626 396.421 24.1332C395.087 24.8003 393.975 24.8373 378.632 24.8373C365.884 24.8373 362.103 24.7632 361.733 24.3926C361.399 24.0591 361.251 22.3913 361.214 18.8335Z" fill="white"/>
<path fill-rule="evenodd" clip-rule="evenodd" d="M427.996 0.599706C427.07 0.85913 425.476 1.63741 424.475 2.34156C423.438 3.00865 422.066 4.37989 421.399 5.38053C420.732 6.41823 419.917 8.08595 419.621 9.08659C419.176 10.6431 419.102 14.5345 419.176 32.2495L419.287 53.5593C421.14 57.5618 422.104 58.8219 423.364 59.9337C424.587 60.9714 426.032 61.7867 427.626 62.2685C429.96 63.0097 430.701 63.0468 452.085 62.9356L452.162 62.9352C473.951 62.8244 474.138 62.8235 475.989 62.0091C477.026 61.5644 478.657 60.3414 479.732 59.2295C480.807 58.1177 481.918 56.4871 482.326 55.4123C482.993 53.6705 483.03 52.4104 483.03 31.1376V8.71598C481.511 5.86232 480.399 4.41696 479.621 3.67575C478.842 2.9716 477.768 2.08214 477.175 1.7486C476.619 1.41505 475.21 0.859139 474.025 0.562654C472.246 0.117927 468.466 0.00673646 450.788 0.043797C433.777 0.043797 429.33 0.154979 427.996 0.599706ZM431.665 31.6935C431.628 16.054 431.702 14.1639 432.258 13.4227L432.851 12.6073H451.084C467.836 12.6073 469.355 12.6815 469.985 13.2744C470.578 13.8674 470.652 15.0904 470.615 31.7677C470.615 49.2973 470.615 49.6679 469.874 50.0385C469.392 50.2609 462.388 50.4091 451.084 50.4091C434.482 50.4091 432.962 50.335 432.332 49.7421C431.739 49.1491 431.665 47.889 431.665 31.6935Z" fill="white"/>
<path fill-rule="evenodd" clip-rule="evenodd" d="M378.892 73.3496C378.076 73.7202 376.965 74.5356 376.372 75.1656C375.816 75.8327 375.297 76.9074 375.186 77.5745C375.074 78.2416 375.037 84.7643 375.074 92.1023L375.186 105.444H381.115C381.412 96.2531 381.597 93.3994 381.745 93.14C381.968 92.7694 384.154 92.6582 390.566 92.6582C395.495 92.6582 399.386 92.8064 399.831 93.0288C400.238 93.2512 400.794 93.77 401.016 94.2518C401.313 94.7336 401.572 97.1425 401.684 100.256L401.869 105.444H407.798C407.798 93.6959 407.687 92.6211 407.057 91.1016L406.316 89.3598C407.798 85.209 407.984 83.9119 407.984 81.0953C407.984 78.7975 407.798 77.0927 407.465 76.4627C407.205 75.9068 406.464 74.9803 405.797 74.4244C405.167 73.8685 404.018 73.2384 403.24 73.0161C402.499 72.8308 397.088 72.6455 391.121 72.6455C381.56 72.6825 380.226 72.7567 378.892 73.3496ZM381.301 82.4665C381.263 81.0582 381.449 80.28 381.856 79.8723C382.375 79.3905 383.821 79.3164 391.529 79.3164C399.089 79.3164 400.683 79.3905 401.128 79.8723C401.461 80.1688 401.721 80.8729 401.721 81.4288C401.721 81.9847 401.535 82.9854 401.35 83.6525C401.091 84.4307 400.535 85.0608 399.831 85.4314C398.941 85.8761 397.051 85.9873 390.38 85.9873C382.412 85.9873 382.042 85.9502 381.671 85.2461C381.486 84.8384 381.301 83.5783 381.301 82.4665Z" fill="white"/>
</svg>
